<mxfile host="Electron" agent="Mozilla/5.0 (X11; Linux x86_64) AppleWebKit/537.36 (KHTML, like Gecko) draw.io/26.0.16 Chrome/132.0.6834.196 Electron/34.2.0 Safari/537.36" version="26.0.16">
  <diagram name="Página-1" id="CkptjIYN0uc4NgwU5A2b">
    <mxGraphModel dx="1434" dy="822" grid="1" gridSize="10" guides="1" tooltips="1" connect="1" arrows="1" fold="1" page="1" pageScale="1" pageWidth="827" pageHeight="1169" math="0" shadow="0">
      <root>
        <mxCell id="0" />
        <mxCell id="1" parent="0" />
        <mxCell id="HtRgUHT-cixpDR2EmEzu-1" value="" style="html=1;whiteSpace=wrap;shape=isoCube2;backgroundOutline=1;isoAngle=15;fillColor=#ffe6cc;strokeColor=#d79b00;" parent="1" vertex="1">
          <mxGeometry x="115" y="550" width="130" height="140" as="geometry" />
        </mxCell>
        <mxCell id="HtRgUHT-cixpDR2EmEzu-2" value="servicio productos" style="text;html=1;align=center;verticalAlign=middle;resizable=0;points=[];autosize=1;strokeColor=#d79b00;fillColor=#ffe6cc;" parent="1" vertex="1">
          <mxGeometry x="120" y="700" width="120" height="30" as="geometry" />
        </mxCell>
        <mxCell id="HtRgUHT-cixpDR2EmEzu-3" value="" style="html=1;whiteSpace=wrap;shape=isoCube2;backgroundOutline=1;isoAngle=15;fillColor=#60a917;strokeColor=#2D7600;fontColor=#ffffff;" parent="1" vertex="1">
          <mxGeometry x="330" y="300" width="130" height="140" as="geometry" />
        </mxCell>
        <mxCell id="HtRgUHT-cixpDR2EmEzu-4" value="servicio eureka-server" style="text;html=1;align=center;verticalAlign=middle;resizable=0;points=[];autosize=1;strokeColor=#2D7600;fillColor=#60a917;fontColor=#ffffff;" parent="1" vertex="1">
          <mxGeometry x="320" y="440" width="140" height="30" as="geometry" />
        </mxCell>
        <mxCell id="HtRgUHT-cixpDR2EmEzu-35" style="edgeStyle=orthogonalEdgeStyle;rounded=0;orthogonalLoop=1;jettySize=auto;html=1;entryX=1;entryY=0.5;entryDx=0;entryDy=0;entryPerimeter=0;" parent="1" source="HtRgUHT-cixpDR2EmEzu-5" target="HtRgUHT-cixpDR2EmEzu-1" edge="1">
          <mxGeometry relative="1" as="geometry">
            <mxPoint x="250" y="620" as="targetPoint" />
          </mxGeometry>
        </mxCell>
        <mxCell id="HtRgUHT-cixpDR2EmEzu-5" value="" style="html=1;whiteSpace=wrap;shape=isoCube2;backgroundOutline=1;isoAngle=15;fillColor=#ffe6cc;strokeColor=#d79b00;" parent="1" vertex="1">
          <mxGeometry x="338.5" y="550" width="130" height="140" as="geometry" />
        </mxCell>
        <mxCell id="HtRgUHT-cixpDR2EmEzu-6" value="" style="html=1;whiteSpace=wrap;shape=isoCube2;backgroundOutline=1;isoAngle=15;fillColor=#ffe6cc;strokeColor=#d79b00;" parent="1" vertex="1">
          <mxGeometry x="565" y="550" width="130" height="140" as="geometry" />
        </mxCell>
        <mxCell id="HtRgUHT-cixpDR2EmEzu-8" value="servicio carrito-compras" style="text;html=1;align=center;verticalAlign=middle;resizable=0;points=[];autosize=1;strokeColor=#d79b00;fillColor=#ffe6cc;" parent="1" vertex="1">
          <mxGeometry x="338.5" y="700" width="150" height="30" as="geometry" />
        </mxCell>
        <mxCell id="HtRgUHT-cixpDR2EmEzu-9" value="servicio ventas" style="text;html=1;align=center;verticalAlign=middle;resizable=0;points=[];autosize=1;strokeColor=#d79b00;fillColor=#ffe6cc;" parent="1" vertex="1">
          <mxGeometry x="580" y="700" width="100" height="30" as="geometry" />
        </mxCell>
        <mxCell id="HtRgUHT-cixpDR2EmEzu-10" value="" style="html=1;whiteSpace=wrap;shape=isoCube2;backgroundOutline=1;isoAngle=15;fillColor=#647687;strokeColor=#314354;fontColor=#ffffff;" parent="1" vertex="1">
          <mxGeometry x="590" y="180" width="130" height="140" as="geometry" />
        </mxCell>
        <mxCell id="HtRgUHT-cixpDR2EmEzu-11" value="servicio config-server" style="text;html=1;align=center;verticalAlign=middle;resizable=0;points=[];autosize=1;strokeColor=#314354;fillColor=#647687;fontColor=#ffffff;" parent="1" vertex="1">
          <mxGeometry x="580" y="328" width="140" height="30" as="geometry" />
        </mxCell>
        <mxCell id="HtRgUHT-cixpDR2EmEzu-17" style="edgeStyle=orthogonalEdgeStyle;rounded=0;orthogonalLoop=1;jettySize=auto;html=1;fillColor=#0050ef;strokeColor=#001DBC;exitX=0;exitY=0.5;exitDx=0;exitDy=0;exitPerimeter=0;" parent="1" source="HtRgUHT-cixpDR2EmEzu-3" target="HtRgUHT-cixpDR2EmEzu-1" edge="1">
          <mxGeometry relative="1" as="geometry">
            <mxPoint x="250" y="410" as="sourcePoint" />
          </mxGeometry>
        </mxCell>
        <mxCell id="HtRgUHT-cixpDR2EmEzu-13" value="/&amp;lt;servicio&amp;gt;/api/&amp;lt;metodo&amp;gt;" style="text;html=1;align=center;verticalAlign=middle;resizable=0;points=[];autosize=1;" parent="1" vertex="1">
          <mxGeometry x="300" y="240" width="160" height="30" as="geometry" />
        </mxCell>
        <mxCell id="HtRgUHT-cixpDR2EmEzu-15" value="localhost:8761/config-server/default" style="text;html=1;align=center;verticalAlign=middle;resizable=0;points=[];autosize=1;strokeColor=none;fillColor=none;" parent="1" vertex="1">
          <mxGeometry x="565" y="368" width="210" height="30" as="geometry" />
        </mxCell>
        <mxCell id="HtRgUHT-cixpDR2EmEzu-19" style="edgeStyle=orthogonalEdgeStyle;rounded=0;orthogonalLoop=1;jettySize=auto;html=1;entryX=0.5;entryY=0;entryDx=0;entryDy=0;entryPerimeter=0;fillColor=#0050ef;strokeColor=#001DBC;exitX=1.031;exitY=0.714;exitDx=0;exitDy=0;exitPerimeter=0;" parent="1" source="HtRgUHT-cixpDR2EmEzu-3" target="HtRgUHT-cixpDR2EmEzu-6" edge="1">
          <mxGeometry relative="1" as="geometry">
            <mxPoint x="530" y="410" as="sourcePoint" />
          </mxGeometry>
        </mxCell>
        <mxCell id="HtRgUHT-cixpDR2EmEzu-21" style="edgeStyle=orthogonalEdgeStyle;rounded=0;orthogonalLoop=1;jettySize=auto;html=1;entryX=0;entryY=0.5;entryDx=0;entryDy=0;entryPerimeter=0;fillColor=#0050ef;strokeColor=#001DBC;exitX=1;exitY=0.5;exitDx=0;exitDy=0;exitPerimeter=0;" parent="1" source="HtRgUHT-cixpDR2EmEzu-3" target="HtRgUHT-cixpDR2EmEzu-10" edge="1">
          <mxGeometry relative="1" as="geometry">
            <mxPoint x="470" y="370" as="sourcePoint" />
          </mxGeometry>
        </mxCell>
        <mxCell id="HtRgUHT-cixpDR2EmEzu-22" value="Service Registry &amp;amp; Service Discovery" style="shape=ext;double=1;rounded=1;whiteSpace=wrap;html=1;fillColor=#e3c800;fontColor=#000000;strokeColor=#B09500;" parent="1" vertex="1">
          <mxGeometry x="340" y="368" width="110" height="40" as="geometry" />
        </mxCell>
        <mxCell id="HtRgUHT-cixpDR2EmEzu-23" value="Configuration Server / Central Server" style="shape=ext;double=1;rounded=1;whiteSpace=wrap;html=1;fillColor=#e3c800;fontColor=#000000;strokeColor=#B09500;" parent="1" vertex="1">
          <mxGeometry x="595" y="120" width="125" height="50" as="geometry" />
        </mxCell>
        <mxCell id="HtRgUHT-cixpDR2EmEzu-24" value="Microservicio Tienda Electrodomésticos" style="text;html=1;align=center;verticalAlign=middle;resizable=0;points=[];autosize=1;strokeColor=none;fillColor=none;fontStyle=5" parent="1" vertex="1">
          <mxGeometry x="288.5" y="20" width="230" height="30" as="geometry" />
        </mxCell>
        <mxCell id="HtRgUHT-cixpDR2EmEzu-25" value="tienda-electrodomesticos" style="text;html=1;align=center;verticalAlign=middle;resizable=0;points=[];autosize=1;strokeColor=#6F0000;fillColor=#a20025;fontColor=#ffffff;" parent="1" vertex="1">
          <mxGeometry x="315" y="50" width="160" height="30" as="geometry" />
        </mxCell>
        <mxCell id="HtRgUHT-cixpDR2EmEzu-26" value="Load balancer" style="shape=ext;double=1;rounded=1;whiteSpace=wrap;html=1;fillColor=#e3c800;fontColor=#000000;strokeColor=#B09500;" parent="1" vertex="1">
          <mxGeometry x="100" y="750" width="110" height="40" as="geometry" />
        </mxCell>
        <mxCell id="HtRgUHT-cixpDR2EmEzu-27" value="Load balancer" style="shape=ext;double=1;rounded=1;whiteSpace=wrap;html=1;fillColor=#e3c800;fontColor=#000000;strokeColor=#B09500;" parent="1" vertex="1">
          <mxGeometry x="340" y="750" width="110" height="40" as="geometry" />
        </mxCell>
        <mxCell id="HtRgUHT-cixpDR2EmEzu-28" value="Circuit Braker" style="shape=ext;double=1;rounded=1;whiteSpace=wrap;html=1;fillColor=#e3c800;fontColor=#000000;strokeColor=#B09500;" parent="1" vertex="1">
          <mxGeometry x="575" y="750" width="110" height="40" as="geometry" />
        </mxCell>
        <mxCell id="HtRgUHT-cixpDR2EmEzu-30" value="Circuit Braker" style="shape=ext;double=1;rounded=1;whiteSpace=wrap;html=1;fillColor=#e3c800;fontColor=#000000;strokeColor=#B09500;" parent="1" vertex="1">
          <mxGeometry x="340" y="800" width="110" height="40" as="geometry" />
        </mxCell>
        <mxCell id="HtRgUHT-cixpDR2EmEzu-31" value="x3" style="text;html=1;align=center;verticalAlign=middle;resizable=0;points=[];autosize=1;strokeColor=none;fillColor=none;" parent="1" vertex="1">
          <mxGeometry x="205" y="755" width="40" height="30" as="geometry" />
        </mxCell>
        <mxCell id="HtRgUHT-cixpDR2EmEzu-32" value="x5" style="text;html=1;align=center;verticalAlign=middle;resizable=0;points=[];autosize=1;strokeColor=none;fillColor=none;" parent="1" vertex="1">
          <mxGeometry x="440" y="760" width="40" height="30" as="geometry" />
        </mxCell>
        <mxCell id="HtRgUHT-cixpDR2EmEzu-33" value="Load balancer" style="shape=ext;double=1;rounded=1;whiteSpace=wrap;html=1;fillColor=#e3c800;fontColor=#000000;strokeColor=#B09500;" parent="1" vertex="1">
          <mxGeometry x="575" y="800" width="110" height="40" as="geometry" />
        </mxCell>
        <mxCell id="HtRgUHT-cixpDR2EmEzu-34" value="x2" style="text;html=1;align=center;verticalAlign=middle;resizable=0;points=[];autosize=1;strokeColor=none;fillColor=none;" parent="1" vertex="1">
          <mxGeometry x="680" y="808" width="40" height="30" as="geometry" />
        </mxCell>
        <mxCell id="HtRgUHT-cixpDR2EmEzu-36" value="Consume api de servicio&lt;div&gt;productos para obtener&lt;/div&gt;&lt;div&gt;precio de objetos&lt;/div&gt;" style="text;align=center;verticalAlign=middle;resizable=0;points=[];autosize=1;strokeColor=#6D1F00;fillColor=#a0522d;html=1;fontFamily=Times New Roman;fontColor=#ffffff;" parent="1" vertex="1">
          <mxGeometry x="220" y="630" width="140" height="60" as="geometry" />
        </mxCell>
        <mxCell id="HtRgUHT-cixpDR2EmEzu-38" style="edgeStyle=orthogonalEdgeStyle;rounded=0;orthogonalLoop=1;jettySize=auto;html=1;entryX=1;entryY=0.5;entryDx=0;entryDy=0;entryPerimeter=0;" parent="1" source="HtRgUHT-cixpDR2EmEzu-6" target="HtRgUHT-cixpDR2EmEzu-5" edge="1">
          <mxGeometry relative="1" as="geometry" />
        </mxCell>
        <mxCell id="HtRgUHT-cixpDR2EmEzu-39" value="&lt;font style=&quot;color: rgb(255, 255, 255);&quot;&gt;Consume api de carrito-compras&lt;/font&gt;&lt;div&gt;&lt;font style=&quot;color: rgb(255, 255, 255);&quot;&gt;para obtener&amp;nbsp;&lt;span style=&quot;background-color: transparent;&quot;&gt;precio total&lt;/span&gt;&lt;/font&gt;&lt;/div&gt;&lt;div&gt;&lt;span style=&quot;background-color: transparent;&quot;&gt;&lt;font style=&quot;color: rgb(255, 255, 255);&quot;&gt;y articulos comprados&lt;/font&gt;&lt;/span&gt;&lt;/div&gt;" style="text;align=center;verticalAlign=middle;resizable=0;points=[];autosize=1;strokeColor=#6D1F00;fillColor=#a0522d;html=1;fontFamily=Times New Roman;fontColor=#ffffff;" parent="1" vertex="1">
          <mxGeometry x="430" y="630" width="180" height="60" as="geometry" />
        </mxCell>
        <mxCell id="4GiNlIPqdbmB68f2SLBV-3" style="edgeStyle=orthogonalEdgeStyle;rounded=0;orthogonalLoop=1;jettySize=auto;html=1;exitX=0.5;exitY=1;exitDx=0;exitDy=0;" edge="1" parent="1" source="4GiNlIPqdbmB68f2SLBV-2" target="HtRgUHT-cixpDR2EmEzu-3">
          <mxGeometry relative="1" as="geometry" />
        </mxCell>
        <mxCell id="4GiNlIPqdbmB68f2SLBV-2" value="&lt;b&gt;&lt;font style=&quot;font-size: 27px;&quot;&gt;API GATEWAY&lt;/font&gt;&lt;/b&gt;" style="shape=ext;double=1;rounded=1;whiteSpace=wrap;html=1;fillColor=#e3c800;fontColor=#000000;strokeColor=#B09500;" vertex="1" parent="1">
          <mxGeometry x="245" y="140" width="280" height="100" as="geometry" />
        </mxCell>
        <mxCell id="4GiNlIPqdbmB68f2SLBV-4" style="edgeStyle=orthogonalEdgeStyle;rounded=0;orthogonalLoop=1;jettySize=auto;html=1;entryX=0.5;entryY=0;entryDx=0;entryDy=0;entryPerimeter=0;" edge="1" parent="1" source="HtRgUHT-cixpDR2EmEzu-4" target="HtRgUHT-cixpDR2EmEzu-5">
          <mxGeometry relative="1" as="geometry" />
        </mxCell>
        <mxCell id="4GiNlIPqdbmB68f2SLBV-5" value="servicio api-gateway" style="text;html=1;align=center;verticalAlign=middle;resizable=0;points=[];autosize=1;strokeColor=none;fillColor=none;" vertex="1" parent="1">
          <mxGeometry x="320" y="110" width="130" height="30" as="geometry" />
        </mxCell>
      </root>
    </mxGraphModel>
  </diagram>
</mxfile>
